PathFileType   4   (X/Y/Z)
DataRate	CameraRate	NumFrames	NumMarkers	Units	OrigDataRate	OrigDataStartFrame	OrigNumFrames
120.0	120.0	11	37	mm	120.0	56	111
Frame#	Time	midhip	hip_r	hip_l	knee_r	knee_l	ankle_r	ankle_l	midasis	asis_r	asis_l	psis_r	psis_l	epicondLat_r	epicondLat_l	epicondMed_r	epicondMed_l	malleolusLat_r	malleolusLat_l	malleolusMedv_r	malleolusMedv_l	neck	subclavicle_r	subclavicle_l	sternalnotch	xyphoidprocess	thighwand_r	thighwand_l	upperleg1_r	upperleg1_l	upperleg2_r	upperleg2_l	shankwand_r	shankwand_l	lowerleg1_r	lowerleg1_l	toe_r	toe_l
 	 	X1	Y1	Z1	X2	Y2	Z2	X3	Y3	Z3	X4	Y4	Z4	X5	Y5	Z5	X6	Y6	Z6	X7	Y7	Z7	X8	Y8	Z8	X9	Y9	Z9	X10	Y10	Z10	X11	Y11	Z11	X12	Y12	Z12	X13	Y13	Z13	X14	Y14	Z14	X15	Y15	Z15	X16	Y16	Z16	X17	Y17	Z17	X18	Y18	Z18	X19	Y19	Z19	X20	Y20	Z20	X21	Y21	Z21	X22	Y22	Z22	X23	Y23	Z23	X24	Y24	Z24	X25	Y25	Z25	X26	Y26	Z26	X27	Y27	Z27	X28	Y28	Z28	X29	Y29	Z29	X30	Y30	Z30	X31	Y31	Z31	X32	Y32	Z32	X33	Y33	Z33	X34	Y34	Z34	X35	Y35	Z35	X36	Y36	Z36	X37	Y37	Z37

	56	0.55000	1245.485	596.685	-268.945	1252.508	611.156	-215.604	1251.651	606.740	-332.963	1380.169	343.693	-222.436	1150.657	323.217	-324.054	1396.568	53.632	-214.952	943.805	114.224	-339.355	1294.749	671.972	-276.967	1295.399	675.319	-187.996	1294.099	668.624	-365.938	1154.401	688.164	-230.022	1156.521	684.586	-315.199	1381.529	343.168	-176.459	1146.362	323.244	-371.861	1373.110	341.470	-261.238	1153.755	324.415	-279.974	1397.990	54.576	-181.496	937.376	122.833	-370.027	1403.171	54.418	-242.784	937.717	121.821	-305.261	1221.940	1008.551	-265.664	1305.903	931.763	-214.420	1314.670	937.087	-302.841	1295.329	948.249	-251.804	1330.962	810.610	-261.444	1449.978	476.559	-247.780	1233.376	382.594	-433.758	1369.114	493.732	-191.318	1252.270	434.481	-352.324	1395.095	409.632	-192.564	1220.182	355.832	-332.043	1430.871	135.057	-120.650	1086.346	127.397	-314.553	1403.789	197.850	-178.550	1078.261	209.217	-330.398	1490.795	41.084	-213.300	976.503	40.267	-325.178
	57	0.55833	1255.834	598.253	-268.163	1262.593	612.798	-214.850	1261.495	608.209	-332.201	1387.000	343.715	-222.092	1167.651	321.794	-324.293	1397.129	53.637	-215.106	955.908	118.332	-339.363	1304.714	673.519	-276.389	1305.547	676.999	-187.390	1303.881	670.039	-365.388	1164.739	689.898	-229.002	1166.836	685.927	-314.192	1388.560	343.200	-176.122	1163.369	321.877	-372.102	1379.354	340.748	-259.300	1172.892	321.675	-280.282	1398.437	54.489	-181.642	949.132	127.635	-369.757	1403.030	54.276	-242.798	951.311	125.363	-305.379	1231.683	1010.395	-263.907	1316.145	933.738	-212.755	1324.646	939.118	-301.144	1305.393	950.064	-250.105	1341.456	812.680	-259.865	1458.794	475.690	-247.938	1248.951	383.213	-434.173	1378.610	493.652	-190.754	1268.481	434.578	-352.302	1403.047	409.153	-191.410	1238.044	354.979	-332.720	1432.786	133.861	-120.550	1098.791	127.112	-316.989	1408.514	197.758	-178.244	1093.532	209.088	-331.746	1491.016	40.695	-213.372	982.251	41.771	-324.621
	58	0.56667	1265.957	599.864	-267.456	1272.364	614.466	-214.206	1271.080	609.811	-331.552	1393.144	343.677	-221.727	1185.208	320.542	-324.711	1397.669	53.667	-215.251	969.158	122.501	-339.179	1314.436	675.119	-275.844	1315.410	678.650	-186.818	1313.461	671.588	-364.871	1174.924	691.774	-227.945	1176.988	687.410	-313.113	1394.756	343.120	-175.759	1180.796	320.721	-372.508	1385.049	340.926	-258.777	1192.610	318.448	-281.087	1398.748	54.431	-181.777	962.036	132.470	-369.282	1403.079	54.120	-242.754	965.702	128.833	-305.134	1241.251	1012.302	-262.222	1326.243	935.856	-211.354	1334.361	941.322	-299.742	1315.273	952.043	-248.591	1351.789	814.919	-258.632	1467.096	474.593	-247.694	1264.528	384.148	-434.921	1387.207	493.694	-190.002	1283.693	435.033	-352.903	1410.123	408.812	-190.846	1256.057	354.453	-333.931	1434.128	132.785	-120.361	1112.134	127.104	-319.349	1411.685	197.491	-178.056	1109.514	208.978	-333.082	1491.124	40.454	-213.478	989.689	43.890	-324.101
	59	0.57500	1275.800	601.518	-266.811	1281.825	616.155	-213.640	1280.440	611.524	-330.986	1398.726	343.638	-221.354	1203.257	319.552	-325.291	1398.167	53.709	-215.370	983.432	126.765	-338.776	1323.924	676.767	-275.302	1324.975	680.281	-186.243	1322.872	673.252	-364.360	1184.917	693.754	-226.932	1186.968	689.004	-312.046	1400.270	342.999	-175.385	1198.540	319.867	-373.058	1390.537	341.707	-259.219	1212.601	315.628	-282.168	1398.975	54.398	-181.887	975.992	137.334	-368.595	1403.151	54.025	-242.863	980.156	132.888	-304.471	1250.726	1014.277	-260.579	1336.153	938.030	-210.170	1343.762	943.593	-298.549	1324.975	954.137	-247.277	1361.747	817.200	-257.675	1474.924	473.401	-247.124	1279.958	385.454	-435.967	1394.945	493.881	-189.230	1298.831	435.815	-353.864	1416.523	408.644	-190.697	1274.088	354.333	-335.520	1435.148	131.844	-120.129	1126.295	127.439	-321.461	1413.753	197.110	-177.947	1125.934	208.993	-334.245	1491.165	40.300	-213.616	999.079	46.626	-323.746
	60	0.58333	1285.378	603.227	-266.236	1291.019	617.864	-213.120	1289.620	613.337	-330.470	1403.854	343.618	-220.974	1221.710	318.924	-326.020	1398.591	53.760	-215.453	998.595	131.121	-338.136	1333.207	678.465	-274.732	1334.269	681.902	-185.632	1332.144	675.028	-363.832	1194.691	695.799	-226.027	1196.765	690.695	-311.061	1405.241	342.872	-175.001	1216.513	319.402	-373.736	1395.875	342.574	-259.714	1232.709	313.354	-283.449	1399.155	54.387	-181.963	990.874	142.201	-367.697	1403.158	54.039	-242.982	995.004	137.524	-303.513	1260.118	1016.350	-258.974	1345.881	940.180	-209.129	1352.926	945.879	-297.498	1334.507	956.289	-246.159	1371.322	819.450	-256.948	1482.329	472.159	-246.315	1295.170	387.167	-437.255	1402.180	494.112	-188.507	1313.630	436.983	-355.188	1422.511	408.587	-190.546	1291.988	354.790	-337.413	1436.060	131.026	-119.896	1141.218	128.162	-323.207	1415.708	196.804	-177.750	1142.659	209.211	-334.955	1491.168	40.195	-213.757	1010.568	49.893	-323.678
	61	0.59167	1294.734	605.005	-265.744	1300.001	619.588	-212.627	1298.670	615.255	-329.984	1408.607	343.607	-220.577	1240.465	318.758	-326.886	1398.919	53.820	-215.497	1014.520	135.514	-337.258	1342.322	680.223	-274.112	1343.333	683.515	-184.956	1341.311	676.932	-363.268	1204.235	697.869	-225.253	1206.368	692.475	-310.203	1409.781	342.744	-174.600	1234.645	319.402	-374.527	1400.965	343.290	-259.994	1254.470	310.989	-285.228	1399.311	54.394	-182.004	1006.549	147.003	-366.596	1403.142	54.114	-242.977	1010.736	142.470	-302.395	1269.369	1018.482	-257.430	1355.480	942.312	-208.293	1361.963	948.167	-296.670	1343.883	958.454	-245.217	1380.708	821.683	-256.467	1489.363	470.849	-245.332	1310.167	389.308	-438.717	1409.193	494.224	-187.779	1328.018	438.656	-356.854	1428.247	408.488	-190.277	1310.672	356.225	-339.986	1437.012	130.307	-119.694	1156.877	129.288	-324.548	1417.901	196.586	-177.455	1159.827	210.092	-335.169	1491.159	40.122	-213.874	1024.174	53.533	-323.986
	62	0.60000	1303.890	606.855	-265.332	1308.821	621.314	-212.153	1307.632	617.282	-329.523	1413.054	343.587	-220.151	1259.398	319.124	-327.876	1399.150	53.893	-215.511	1031.112	139.834	-336.160	1351.304	682.047	-273.430	1352.208	685.112	-184.202	1350.401	678.982	-362.658	1213.559	699.925	-224.609	1215.770	694.345	-309.493	1413.974	342.608	-174.171	1252.870	319.917	-375.424	1405.612	343.704	-259.907	1277.981	308.861	-287.591	1399.458	54.415	-182.016	1022.899	151.639	-365.306	1403.144	54.233	-242.919	1027.745	147.042	-301.216	1278.524	1020.561	-255.964	1365.015	944.483	-207.743	1370.830	950.452	-296.108	1353.118	960.604	-244.429	1389.999	823.937	-256.230	1496.073	469.430	-244.219	1325.012	391.872	-440.285	1415.954	494.193	-187.059	1342.491	440.962	-358.514	1433.602	408.187	-189.796	1330.168	358.683	-343.117	1438.068	129.660	-119.533	1173.267	130.789	-325.534	1420.257	196.389	-177.221	1177.572	211.900	-335.284	1491.148	40.070	-213.953	1039.784	57.348	-324.706
	63	0.60833	1312.835	608.772	-265.007	1317.524	623.026	-211.701	1316.547	619.419	-329.086	1417.247	343.542	-219.688	1278.380	320.047	-328.973	1399.309	53.979	-215.507	1048.322	143.928	-334.875	1360.187	683.933	-272.680	1360.931	686.677	-183.365	1359.443	681.188	-361.995	1222.682	701.934	-224.078	1224.976	696.305	-308.930	1417.880	342.454	-173.706	1271.131	320.953	-376.414	1409.672	343.790	-259.407	1299.757	308.539	-289.547	1399.603	54.445	-182.012	1039.844	155.973	-363.845	1403.217	54.285	-242.953	1046.088	150.792	-299.978	1287.625	1022.594	-254.588	1374.379	946.576	-207.316	1379.533	952.702	-295.663	1362.231	962.719	-243.776	1399.042	826.125	-256.180	1502.498	467.869	-242.998	1339.805	394.835	-441.899	1422.440	493.983	-186.308	1357.051	443.883	-360.032	1438.456	407.631	-189.043	1348.521	361.445	-345.620	1439.208	129.066	-119.406	1190.388	132.597	-326.279	1422.202	196.055	-177.126	1195.705	214.239	-335.444	1491.141	40.031	-214.002	1057.194	61.124	-325.815
	64	0.61667	1321.612	610.738	-264.795	1326.140	624.709	-211.269	1325.437	621.656	-328.672	1421.224	343.461	-219.189	1297.287	321.496	-330.155	1399.436	54.075	-215.498	1066.140	147.620	-333.445	1368.997	685.867	-271.859	1369.532	688.192	-182.449	1368.461	683.542	-361.269	1231.632	703.874	-223.631	1234.002	698.354	-308.499	1421.541	342.274	-173.206	1289.371	322.473	-377.488	1413.304	343.625	-258.639	1319.617	309.779	-290.913	1399.744	54.479	-182.002	1057.345	159.856	-362.241	1403.354	54.137	-243.137	1065.435	153.861	-298.643	1296.523	1024.639	-253.222	1383.637	948.546	-206.915	1388.088	954.902	-295.271	1371.238	964.781	-243.241	1407.934	828.227	-256.281	1508.670	466.160	-241.682	1354.645	398.153	-443.514	1428.718	493.542	-185.472	1371.476	447.329	-361.437	1442.938	406.861	-188.086	1365.785	364.487	-347.398	1440.355	128.511	-119.286	1208.230	134.611	-326.929	1423.211	195.413	-177.157	1214.180	216.741	-335.637	1491.143	40.001	-214.030	1076.147	64.671	-327.231
	65	0.62500	1330.235	612.723	-264.679	1334.677	626.348	-210.857	1334.318	623.968	-328.278	1425.006	343.344	-218.661	1316.013	323.391	-331.392	1399.573	54.173	-215.494	1084.577	150.746	-331.923	1377.749	687.825	-270.969	1378.023	689.638	-181.463	1377.476	686.011	-360.476	1240.434	705.738	-223.245	1242.875	700.481	-308.179	1424.983	342.068	-172.678	1307.545	324.396	-378.629	1416.897	343.349	-257.725	1339.231	311.669	-292.343	1399.879	54.513	-181.997	1075.393	163.146	-360.526	1403.360	54.542	-242.943	1085.373	156.252	-297.173	1305.249	1026.653	-251.820	1392.840	950.486	-206.619	1396.520	957.026	-294.984	1380.150	966.769	-242.794	1416.758	830.280	-256.436	1514.597	464.320	-240.283	1369.613	401.771	-445.101	1434.706	493.010	-184.593	1385.915	451.197	-362.655	1447.235	406.077	-187.012	1382.969	368.083	-349.050	1441.411	127.995	-119.143	1226.765	136.713	-327.622	1426.253	195.585	-176.606	1232.924	219.222	-336.011	1491.154	39.972	-214.043	1096.373	67.838	-328.840
	66	0.63333	1338.748	614.711	-264.607	1343.127	627.927	-210.465	1343.191	626.320	-327.899	1428.601	343.195	-218.116	1334.491	325.620	-332.655	1399.758	54.264	-215.502	1103.651	153.176	-330.366	1386.451	689.774	-270.016	1386.401	691.000	-180.420	1386.500	688.547	-359.611	1249.115	707.527	-222.904	1251.638	702.661	-307.949	1428.216	341.844	-172.137	1325.615	326.622	-379.816	1420.422	343.216	-256.948	1358.520	314.023	-293.912	1400.007	54.542	-182.004	1093.992	165.729	-358.745	1403.342	54.797	-242.757	1105.686	157.860	-295.608	1314.068	1028.570	-250.531	1401.949	952.367	-206.423	1404.908	959.051	-294.781	1388.981	968.661	-242.410	1425.417	832.235	-256.622	1520.277	462.381	-238.822	1384.753	405.622	-446.644	1440.515	492.477	-183.636	1400.338	455.323	-363.796	1451.399	405.368	-185.984	1400.028	372.037	-350.656	1442.293	127.520	-118.954	1245.948	138.792	-328.460	1428.419	195.485	-176.146	1252.004	221.645	-336.610	1491.176	39.942	-214.047	1117.623	70.516	-330.516
